<svg id="Layer_1" data-name="Layer 1" xmlns="http://www.w3.org/2000/svg" viewBox="0 0 722.77 498.65"><defs><style>.cls-1{fill:#1381c5;}.cls-1,.cls-2,.cls-3,.cls-4,.cls-5,.cls-6{stroke:#231f20;stroke-miterlimit:10;}.cls-2{fill:#e82727;}.cls-3{fill:#eaeaea;}.cls-4{fill:#918e8e;}.cls-5{fill:#f8f6f1;}.cls-13,.cls-7{font-size:12px;}.cls-10,.cls-11,.cls-13,.cls-7,.cls-8{fill:#231f20;}.cls-7{font-family:MyriadPro-Regular, Myriad Pro;}.cls-11,.cls-8{font-size:16px;}.cls-8{font-family:Porter-BoldDEMO, Porter;font-weight:700;}.cls-9{letter-spacing:-0.04em;}.cls-11,.cls-13{font-family:CoolveticaRg-Regular, Coolvetica;}.cls-12{letter-spacing:-0.03em;}.cls-14{letter-spacing:-0.03em;}.cls-15{letter-spacing:-0.03em;}.cls-16{letter-spacing:-0.02em;}.cls-17{letter-spacing:-0.03em;}</style></defs><rect class="cls-1" x="0.5" y="22.37" width="119.13" height="119.13"/><rect class="cls-2" x="0.5" y="199.44" width="119.13" height="119.13"/><rect class="cls-3" x="0.5" y="376.52" width="119.13" height="119.13"/><rect class="cls-4" x="244.73" y="22.37" width="119.13" height="119.13"/><rect class="cls-5" x="244.73" y="199.44" width="119.13" height="119.13"/><rect class="cls-6" x="244.73" y="376.52" width="119.13" height="119.13"/><text class="cls-7" transform="translate(125.62 141.5)">0F81C5</text><text class="cls-7" transform="translate(125.62 318.57)">E92425</text><text class="cls-7" transform="translate(125.62 495.65)">eaeaea</text><text class="cls-7" transform="translate(370.17 141.5)">918e8e</text><text class="cls-7" transform="translate(370.17 318.57)">f7f5f1</text><text class="cls-7" transform="translate(370.17 495.65)">231f20</text><text x="-37.32" y="-49.73"/><text class="cls-8" transform="translate(451.68 51.74)">Po<tspan class="cls-9" x="23.74" y="0">r</tspan><tspan x="34.66" y="0">ter Bold </tspan></text><path class="cls-10" d="M524.6,117.47h-5.05v-8.4h1.67v6.73h3.38Z" transform="translate(-37.32 -49.73)"/><path class="cls-10" d="M529.28,117.55a4.19,4.19,0,0,1-1.55-.3,4.34,4.34,0,0,1-1.35-.85,4.14,4.14,0,0,1-1-1.32,4.25,4.25,0,0,1,0-3.33,4.2,4.2,0,0,1,.88-1.35,4.54,4.54,0,0,1,1.33-.93,4.23,4.23,0,0,1,3.25,0,4.42,4.42,0,0,1,1.34.87,4.56,4.56,0,0,1,.94,1.34,4.14,4.14,0,0,1,.35,1.7,4,4,0,0,1-.31,1.57,4.47,4.47,0,0,1-.87,1.35,4.19,4.19,0,0,1-1.33.93A4.12,4.12,0,0,1,529.28,117.55Zm0-6.78a2.6,2.6,0,0,0-1,.2,2.71,2.71,0,0,0-1.37,1.38,2.6,2.6,0,0,0,0,2,2.55,2.55,0,0,0,.56.81,2.46,2.46,0,0,0,.82.55,2.59,2.59,0,0,0,1,.2,2.38,2.38,0,0,0,1-.21,2.61,2.61,0,0,0,1.36-1.36,2.38,2.38,0,0,0,.21-1,2.46,2.46,0,0,0-.21-1,2.55,2.55,0,0,0-.56-.82,2.73,2.73,0,0,0-.81-.56A2.53,2.53,0,0,0,529.28,110.77Z" transform="translate(-37.32 -49.73)"/><path class="cls-10" d="M542.6,117.47h-2l-2.28-3.21h-1v3.21h-1.65v-8.4H539a2.42,2.42,0,0,1,1,.2,2.72,2.72,0,0,1,.82.56,2.6,2.6,0,0,1,.56.82,2.44,2.44,0,0,1,.21,1,2.56,2.56,0,0,1-.4,1.42,2.52,2.52,0,0,1-1.07.93Zm-3.9-4.86a1.34,1.34,0,0,0,.94-.29.87.87,0,0,0,.3-.66.85.85,0,0,0-.3-.66,1.39,1.39,0,0,0-.94-.27h-1.43v1.88Z" transform="translate(-37.32 -49.73)"/><path class="cls-10" d="M545.92,110.73v1.7h2.73v1.68h-2.73v1.69h3.74v1.67h-5.4v-8.4h5.4v1.66Z" transform="translate(-37.32 -49.73)"/><path class="cls-10" d="M561.08,109v8.49h-1.66V112l-3,3-3-3v5.43h-1.67V109h.92l3.76,3.73,3.77-3.73Z" transform="translate(-37.32 -49.73)"/><path class="cls-10" d="M566.56,117.47v-8.4h1.66v8.4Z" transform="translate(-37.32 -49.73)"/><path class="cls-10" d="M572.28,117.47h-1.67v-8.4H574a2.38,2.38,0,0,1,1,.2,2.6,2.6,0,0,1,.82.56,2.63,2.63,0,0,1,.57.82,2.44,2.44,0,0,1,.21,1,2.52,2.52,0,0,1-.21,1,2.48,2.48,0,0,1-.56.83,2.75,2.75,0,0,1-.82.55,2.64,2.64,0,0,1-1,.2h-1.72Zm0-4.86h1.41a1.32,1.32,0,0,0,.94-.29.87.87,0,0,0,.3-.66.85.85,0,0,0-.3-.66,1.37,1.37,0,0,0-.94-.27h-1.41Z" transform="translate(-37.32 -49.73)"/><path class="cls-10" d="M580.57,117.55a3.47,3.47,0,0,1-1.07-.16,3.86,3.86,0,0,1-1-.44h0a3.83,3.83,0,0,1-.58-.44l-.34-.35,1.24-1.15a2.37,2.37,0,0,0,.27.25,3.58,3.58,0,0,0,.43.29,4.59,4.59,0,0,0,.5.24,1.61,1.61,0,0,0,.51.09,1.48,1.48,0,0,0,.41,0,1.2,1.2,0,0,0,.37-.15.78.78,0,0,0,.38-.69.48.48,0,0,0-.06-.21,1.24,1.24,0,0,0-.23-.24,2.75,2.75,0,0,0-.45-.28,6.53,6.53,0,0,0-.72-.32,9.14,9.14,0,0,1-.94-.42,2.94,2.94,0,0,1-.75-.52,2.31,2.31,0,0,1-.49-.68,2.08,2.08,0,0,1-.17-.89,2.43,2.43,0,0,1,.19-1,2.37,2.37,0,0,1,.54-.78,2.46,2.46,0,0,1,.86-.51,2.94,2.94,0,0,1,1.09-.19,2.84,2.84,0,0,1,.69.09,4.27,4.27,0,0,1,.72.21,4.33,4.33,0,0,1,.65.31,2.38,2.38,0,0,1,.51.35l-1,1.3a4.57,4.57,0,0,0-.47-.29,3,3,0,0,0-.47-.2,1.4,1.4,0,0,0-.54-.1,1.36,1.36,0,0,0-.78.2.64.64,0,0,0-.28.57.47.47,0,0,0,.1.3,1.12,1.12,0,0,0,.27.26,3.87,3.87,0,0,0,.41.21l.48.18a10.12,10.12,0,0,1,1.21.55,3.47,3.47,0,0,1,.79.6,2,2,0,0,1,.43.69,2.53,2.53,0,0,1,.12.8,2.38,2.38,0,0,1-.21,1,2.67,2.67,0,0,1-.6.81,2.7,2.7,0,0,1-.9.54A3.19,3.19,0,0,1,580.57,117.55Z" transform="translate(-37.32 -49.73)"/><path class="cls-10" d="M588.52,117.55a3.34,3.34,0,0,1-1.32-.25,3,3,0,0,1-1-.67,3.05,3.05,0,0,1-.67-1,3.52,3.52,0,0,1-.24-1.32v-5.2h1.66v5a2.06,2.06,0,0,0,.13.76,1.76,1.76,0,0,0,.35.58,1.82,1.82,0,0,0,.51.36,1.61,1.61,0,0,0,.6.12,1.53,1.53,0,0,0,.6-.12,1.57,1.57,0,0,0,.51-.36,1.78,1.78,0,0,0,.36-.58,2.06,2.06,0,0,0,.13-.76v-5h1.67v5.2a3.52,3.52,0,0,1-.24,1.32,2.92,2.92,0,0,1-1.71,1.71A3.34,3.34,0,0,1,588.52,117.55Z" transform="translate(-37.32 -49.73)"/><path class="cls-10" d="M603.61,109v8.49H602V112l-3,3-3-3v5.43h-1.67V109h.92l3.76,3.73L602.7,109Z" transform="translate(-37.32 -49.73)"/><path class="cls-10" d="M609.15,117.47v-8.4h2.92a4.49,4.49,0,0,1,1.68.3,3.59,3.59,0,0,1,1.28.87,3.83,3.83,0,0,1,.82,1.33,4.87,4.87,0,0,1,.28,1.71,4.69,4.69,0,0,1-.28,1.65,3.88,3.88,0,0,1-.82,1.32,3.64,3.64,0,0,1-1.28.89,4.13,4.13,0,0,1-1.68.33Zm1.66-1.67h1.26a2.48,2.48,0,0,0,.95-.19,2.29,2.29,0,0,0,.76-.54,2.38,2.38,0,0,0,.51-.8,2.81,2.81,0,0,0,0-2,2.42,2.42,0,0,0-.51-.81,2.62,2.62,0,0,0-.76-.54,2.3,2.3,0,0,0-.95-.19h-1.26Z" transform="translate(-37.32 -49.73)"/><path class="cls-10" d="M621.91,117.55a4.15,4.15,0,0,1-1.55-.3,4.23,4.23,0,0,1-1.35-.85,4,4,0,0,1-1.31-3.05,4.22,4.22,0,0,1,.31-1.6,4.37,4.37,0,0,1,.88-1.35,4.59,4.59,0,0,1,1.34-.93,4.2,4.2,0,0,1,3.24,0,4.16,4.16,0,0,1,2.28,2.21,4,4,0,0,1,.36,1.7,4,4,0,0,1-.32,1.57,4.19,4.19,0,0,1-2.2,2.28A4.08,4.08,0,0,1,621.91,117.55Zm0-6.78a2.6,2.6,0,0,0-1,.2,2.77,2.77,0,0,0-.82.56,2.88,2.88,0,0,0-.55.82,2.6,2.6,0,0,0,0,2,2.7,2.7,0,0,0,.55.81,2.51,2.51,0,0,0,.83.55,2.55,2.55,0,0,0,1,.2,2.38,2.38,0,0,0,1-.21,2.64,2.64,0,0,0,.81-.55,2.7,2.7,0,0,0,.55-.81,2.54,2.54,0,0,0,.2-1,2.62,2.62,0,0,0-.2-1,2.72,2.72,0,0,0-.56-.82,2.91,2.91,0,0,0-.82-.56A2.44,2.44,0,0,0,621.91,110.77Z" transform="translate(-37.32 -49.73)"/><path class="cls-10" d="M633.27,117.47h-5v-8.4h1.67v6.73h3.38Z" transform="translate(-37.32 -49.73)"/><path class="cls-10" d="M638,117.55a4.19,4.19,0,0,1-1.55-.3,4.34,4.34,0,0,1-1.35-.85,4.14,4.14,0,0,1-.95-1.32,4.25,4.25,0,0,1,0-3.33,4.2,4.2,0,0,1,.88-1.35,4.54,4.54,0,0,1,1.33-.93,4.23,4.23,0,0,1,3.25,0,4.42,4.42,0,0,1,1.34.87,4.56,4.56,0,0,1,.94,1.34,4.14,4.14,0,0,1,.35,1.7,4,4,0,0,1-.31,1.57,4.47,4.47,0,0,1-.87,1.35,4.19,4.19,0,0,1-1.33.93A4.12,4.12,0,0,1,638,117.55Zm0-6.78a2.6,2.6,0,0,0-1,.2,2.73,2.73,0,0,0-.81.56,2.52,2.52,0,0,0-.55.82,2.49,2.49,0,0,0,0,2,2.38,2.38,0,0,0,.55.81,2.46,2.46,0,0,0,.82.55,2.59,2.59,0,0,0,1,.2,2.38,2.38,0,0,0,1-.21,2.61,2.61,0,0,0,1.36-1.36,2.38,2.38,0,0,0,.21-1,2.46,2.46,0,0,0-.21-1,2.69,2.69,0,0,0-.55-.82,2.91,2.91,0,0,0-.82-.56A2.53,2.53,0,0,0,638,110.77Z" transform="translate(-37.32 -49.73)"/><path class="cls-10" d="M651.27,117.47h-2L647,114.26h-1v3.21h-1.65v-8.4h3.39a2.42,2.42,0,0,1,1,.2,2.72,2.72,0,0,1,.82.56,2.6,2.6,0,0,1,.56.82,2.44,2.44,0,0,1,.21,1,2.56,2.56,0,0,1-.4,1.42,2.52,2.52,0,0,1-1.07.93Zm-3.9-4.86a1.34,1.34,0,0,0,.94-.29.87.87,0,0,0,.3-.66.85.85,0,0,0-.3-.66,1.39,1.39,0,0,0-.94-.27h-1.43v1.88Z" transform="translate(-37.32 -49.73)"/><path class="cls-10" d="M658,117.55a3.47,3.47,0,0,1-1.07-.16,3.86,3.86,0,0,1-1-.44h0a3.3,3.3,0,0,1-.57-.44l-.35-.35,1.24-1.15a2.37,2.37,0,0,0,.27.25,3.58,3.58,0,0,0,.43.29,4.59,4.59,0,0,0,.5.24,1.61,1.61,0,0,0,.51.09,1.48,1.48,0,0,0,.41,0,1.2,1.2,0,0,0,.37-.15.78.78,0,0,0,.38-.69.48.48,0,0,0-.06-.21,1.24,1.24,0,0,0-.23-.24,2.75,2.75,0,0,0-.45-.28,6.53,6.53,0,0,0-.72-.32,9.14,9.14,0,0,1-.94-.42A2.94,2.94,0,0,1,656,113a2.31,2.31,0,0,1-.49-.68,2.08,2.08,0,0,1-.17-.89,2.43,2.43,0,0,1,.19-1,2.37,2.37,0,0,1,.54-.78,2.46,2.46,0,0,1,.86-.51A2.94,2.94,0,0,1,658,109a2.84,2.84,0,0,1,.69.09,4.27,4.27,0,0,1,.72.21,4.33,4.33,0,0,1,.65.31,2.38,2.38,0,0,1,.51.35l-1,1.3a4.57,4.57,0,0,0-.47-.29,3,3,0,0,0-.47-.2,1.4,1.4,0,0,0-.54-.1,1.36,1.36,0,0,0-.78.2.64.64,0,0,0-.28.57.47.47,0,0,0,.1.3,1.12,1.12,0,0,0,.27.26,3.87,3.87,0,0,0,.41.21l.48.18a9.44,9.44,0,0,1,1.21.55,3.47,3.47,0,0,1,.79.6,2,2,0,0,1,.43.69,2.53,2.53,0,0,1,.12.8,2.38,2.38,0,0,1-.21,1,2.67,2.67,0,0,1-.6.81,2.7,2.7,0,0,1-.9.54A3.19,3.19,0,0,1,658,117.55Z" transform="translate(-37.32 -49.73)"/><path class="cls-10" d="M662.74,117.47v-8.4h1.66v8.4Z" transform="translate(-37.32 -49.73)"/><path class="cls-10" d="M672.44,110.73h-2.31v6.74h-1.66v-6.74h-2.33v-1.66h6.3Z" transform="translate(-37.32 -49.73)"/><path class="cls-10" d="M680.61,109l3.78,8.49h-1.84l-.68-1.54h-3.2c-.11.24-.22.5-.35.77s-.23.53-.32.77h-1.83L679.9,109Zm.52,5.28-.87-1.94-.86,1.94Z" transform="translate(-37.32 -49.73)"/><path class="cls-10" d="M695.3,109v8.49h-1.66V112l-3,3-3-3v5.43h-1.67V109h.92l3.76,3.73,3.77-3.73Z" transform="translate(-37.32 -49.73)"/><path class="cls-10" d="M699.61,110.73v1.7h2.72v1.68h-2.72v1.69h3.73v1.67h-5.4v-8.4h5.4v1.66Z" transform="translate(-37.32 -49.73)"/><path class="cls-10" d="M711,110.73h-2.31v6.74h-1.66v-6.74h-2.33v-1.66H711Z" transform="translate(-37.32 -49.73)"/><path class="cls-10" d="M712.78,118.44l1-2.8h1.7l-1.45,2.8Z" transform="translate(-37.32 -49.73)"/><path class="cls-10" d="M727.58,116.06a5.49,5.49,0,0,1-1.53,1.1,4,4,0,0,1-1.74.39,4.08,4.08,0,0,1-1.76-.37,4.14,4.14,0,0,1-1.35-1,4.35,4.35,0,0,1-.86-1.37,4.29,4.29,0,0,1-.3-1.57,4.12,4.12,0,0,1,.36-1.73,4.24,4.24,0,0,1,.94-1.36,4.43,4.43,0,0,1,1.37-.89,4.23,4.23,0,0,1,1.6-.32,4.15,4.15,0,0,1,1.67.36,4.66,4.66,0,0,1,1.47,1l-1.17,1.18a3.07,3.07,0,0,0-.93-.65,2.54,2.54,0,0,0-1-.23,2.47,2.47,0,0,0-1,.21,2.82,2.82,0,0,0-.83.56,2.87,2.87,0,0,0-.56.84,2.69,2.69,0,0,0-.2,1,2.6,2.6,0,0,0,.2,1,2.82,2.82,0,0,0,.56.83,2.57,2.57,0,0,0,1.84.76,2.33,2.33,0,0,0,1.11-.26,3.79,3.79,0,0,0,1-.72Z" transform="translate(-37.32 -49.73)"/><path class="cls-10" d="M733,117.55a4.19,4.19,0,0,1-1.55-.3,4.34,4.34,0,0,1-1.35-.85,4.14,4.14,0,0,1-.95-1.32,4,4,0,0,1-.36-1.73,4.22,4.22,0,0,1,.31-1.6,4.4,4.4,0,0,1,.89-1.35,4.54,4.54,0,0,1,1.33-.93,4.2,4.2,0,0,1,3.24,0,4.16,4.16,0,0,1,2.28,2.21,4,4,0,0,1,.36,1.7,4.22,4.22,0,0,1-.31,1.57,4.47,4.47,0,0,1-.87,1.35,4.24,4.24,0,0,1-1.34.93A4,4,0,0,1,733,117.55Zm0-6.78a2.6,2.6,0,0,0-1,.2,2.91,2.91,0,0,0-.82.56,2.88,2.88,0,0,0-.55.82,2.6,2.6,0,0,0,0,2,2.7,2.7,0,0,0,.55.81,2.61,2.61,0,0,0,.83.55,2.59,2.59,0,0,0,1,.2,2.38,2.38,0,0,0,1-.21,2.53,2.53,0,0,0,.81-.55,2.7,2.7,0,0,0,.55-.81,2.37,2.37,0,0,0,.2-1,2.45,2.45,0,0,0-.2-1,2.72,2.72,0,0,0-.56-.82A2.86,2.86,0,0,0,734,111,2.53,2.53,0,0,0,733,110.77Z" transform="translate(-37.32 -49.73)"/><path class="cls-10" d="M739.38,109h.73l4.53,5v-5h1.66v8.48h-.75l-4.52-5v5h-1.65Z" transform="translate(-37.32 -49.73)"/><path class="cls-10" d="M754.93,114.11h-5.49v-1.68h5.49Z" transform="translate(-37.32 -49.73)"/><path class="cls-10" d="M521.72,132a3.51,3.51,0,0,1-1.07-.16,3.86,3.86,0,0,1-1-.44h0a3.73,3.73,0,0,1-.57-.44l-.35-.35,1.25-1.15a1.37,1.37,0,0,0,.27.25,2.81,2.81,0,0,0,.42.29,4,4,0,0,0,.51.24,1.51,1.51,0,0,0,.5.09,1.44,1.44,0,0,0,.41-.05,1.2,1.2,0,0,0,.37-.15.8.8,0,0,0,.28-.27.77.77,0,0,0,.1-.42.48.48,0,0,0-.06-.21,1.24,1.24,0,0,0-.23-.24,2.75,2.75,0,0,0-.45-.28,6.53,6.53,0,0,0-.72-.32,9.14,9.14,0,0,1-.94-.42,3.34,3.34,0,0,1-.75-.52,2.31,2.31,0,0,1-.49-.68,2.24,2.24,0,0,1-.17-.89,2.43,2.43,0,0,1,.19-1,2.26,2.26,0,0,1,.55-.78,2.41,2.41,0,0,1,.85-.51,3,3,0,0,1,1.79-.1,4.44,4.44,0,0,1,.71.21,4.33,4.33,0,0,1,.65.31,2.38,2.38,0,0,1,.51.35l-1,1.3a4.57,4.57,0,0,0-.47-.29,3.34,3.34,0,0,0-.46-.2,1.47,1.47,0,0,0-.54-.1,1.38,1.38,0,0,0-.79.2.64.64,0,0,0-.28.57.47.47,0,0,0,.1.3,1,1,0,0,0,.28.26,3.65,3.65,0,0,0,.4.21l.48.18a9.44,9.44,0,0,1,1.21.55,3.47,3.47,0,0,1,.79.6,2,2,0,0,1,.43.69,2.53,2.53,0,0,1,.12.8,2.38,2.38,0,0,1-.21,1,2.52,2.52,0,0,1-.6.81,2.7,2.7,0,0,1-.9.54A3.15,3.15,0,0,1,521.72,132Z" transform="translate(-37.32 -49.73)"/><path class="cls-10" d="M528.19,125.13v1.7h2.72v1.68h-2.72v1.69h3.73v1.67h-5.4v-8.4h5.4v1.66Z" transform="translate(-37.32 -49.73)"/><path class="cls-10" d="M540.67,130.46a5.49,5.49,0,0,1-1.53,1.1,4.22,4.22,0,0,1-3.5,0,4.14,4.14,0,0,1-1.35-1,4.35,4.35,0,0,1-.86-1.37,4.29,4.29,0,0,1-.3-1.57,4.12,4.12,0,0,1,.36-1.73,4.24,4.24,0,0,1,.94-1.36,4.43,4.43,0,0,1,1.37-.89,4.23,4.23,0,0,1,1.6-.32,4.15,4.15,0,0,1,1.67.36,4.66,4.66,0,0,1,1.47,1l-1.17,1.18a3.07,3.07,0,0,0-.93-.65,2.57,2.57,0,0,0-1-.23,2.47,2.47,0,0,0-1,.21,2.82,2.82,0,0,0-.83.56,2.87,2.87,0,0,0-.56.84,2.69,2.69,0,0,0-.2,1,2.6,2.6,0,0,0,.2,1,2.82,2.82,0,0,0,.56.83,2.57,2.57,0,0,0,1.84.76,2.33,2.33,0,0,0,1.11-.26,3.79,3.79,0,0,0,1-.72Z" transform="translate(-37.32 -49.73)"/><path class="cls-10" d="M548,125.13h-2.31v6.74H544v-6.74h-2.32v-1.66H548Z" transform="translate(-37.32 -49.73)"/><path class="cls-10" d="M551.5,125.13v1.7h2.73v1.68H551.5v1.69h3.74v1.67h-5.4v-8.4h5.4v1.66Z" transform="translate(-37.32 -49.73)"/><path class="cls-10" d="M562.92,125.13h-2.31v6.74H559v-6.74h-2.33v-1.66h6.3Z" transform="translate(-37.32 -49.73)"/><path class="cls-10" d="M567.93,132a3.34,3.34,0,0,1-1.32-.25,3,3,0,0,1-1-.67,3.05,3.05,0,0,1-.67-1,3.52,3.52,0,0,1-.24-1.32v-5.2h1.66v5a2.06,2.06,0,0,0,.13.76,1.76,1.76,0,0,0,.35.58,1.82,1.82,0,0,0,.51.36,1.61,1.61,0,0,0,.6.12,1.53,1.53,0,0,0,.6-.12,1.57,1.57,0,0,0,.51-.36,1.78,1.78,0,0,0,.36-.58,2.06,2.06,0,0,0,.13-.76v-5h1.67v5.2A3.52,3.52,0,0,1,571,130a2.92,2.92,0,0,1-1.71,1.71A3.34,3.34,0,0,1,567.93,132Z" transform="translate(-37.32 -49.73)"/><path class="cls-10" d="M575.28,125.13v1.7H578v1.68h-2.72v1.69H579v1.67h-5.4v-8.4H579v1.66Z" transform="translate(-37.32 -49.73)"/><path class="cls-10" d="M588,131.87h-2l-2.28-3.21h-1v3.21h-1.66v-8.4h3.4a2.37,2.37,0,0,1,1,.2,2.6,2.6,0,0,1,.82.56,2.63,2.63,0,0,1,.57.82,2.44,2.44,0,0,1,.21,1,2.57,2.57,0,0,1-.41,1.42,2.47,2.47,0,0,1-1.07.93Zm-3.9-4.86a1.32,1.32,0,0,0,.94-.29.87.87,0,0,0,.3-.66.85.85,0,0,0-.3-.66,1.37,1.37,0,0,0-.94-.27h-1.42V127Z" transform="translate(-37.32 -49.73)"/><path class="cls-10" d="M596,123.38l3.78,8.49H598l-.69-1.54h-3.2c-.11.24-.22.5-.35.77s-.23.53-.32.77h-1.83l3.73-8.49Zm.52,5.28-.87-1.94-.86,1.94Z" transform="translate(-37.32 -49.73)"/><path class="cls-10" d="M601.31,131.87v-8.4h2.91a4.54,4.54,0,0,1,1.69.3,3.68,3.68,0,0,1,1.28.87A3.8,3.8,0,0,1,608,126a4.87,4.87,0,0,1,.29,1.71,4.69,4.69,0,0,1-.29,1.65,3.85,3.85,0,0,1-.81,1.32,3.73,3.73,0,0,1-1.28.89,4.18,4.18,0,0,1-1.69.33ZM603,130.2h1.26a2.44,2.44,0,0,0,.95-.19,2.33,2.33,0,0,0,.77-.54,2.52,2.52,0,0,0,.5-.8,2.81,2.81,0,0,0,0-2,2.57,2.57,0,0,0-.5-.81,2.67,2.67,0,0,0-.77-.54,2.27,2.27,0,0,0-.95-.19H603Z" transform="translate(-37.32 -49.73)"/><path class="cls-10" d="M610.33,131.87v-8.4H612v8.4Z" transform="translate(-37.32 -49.73)"/><path class="cls-10" d="M616,131.87h-1.67v-8.4h3.4a2.45,2.45,0,0,1,1,.2,2.72,2.72,0,0,1,.82.56,2.77,2.77,0,0,1,.56.82,2.44,2.44,0,0,1,.21,1,2.69,2.69,0,0,1-.2,1,2.56,2.56,0,0,1-1.39,1.38,2.59,2.59,0,0,1-1,.2H616Zm0-4.86h1.42a1.31,1.31,0,0,0,.93-.29.87.87,0,0,0,.3-.66.85.85,0,0,0-.3-.66,1.36,1.36,0,0,0-.93-.27H616Z" transform="translate(-37.32 -49.73)"/><path class="cls-10" d="M622.13,131.87v-8.4h1.65v8.4Z" transform="translate(-37.32 -49.73)"/><path class="cls-10" d="M628.33,132a3.51,3.51,0,0,1-1.07-.16,3.86,3.86,0,0,1-1-.44h0a3.3,3.3,0,0,1-.57-.44c-.17-.16-.29-.28-.35-.35l1.25-1.15a1.37,1.37,0,0,0,.27.25,2.81,2.81,0,0,0,.42.29,4,4,0,0,0,.51.24,1.51,1.51,0,0,0,.5.09,1.48,1.48,0,0,0,.41-.05,1.2,1.2,0,0,0,.37-.15.78.78,0,0,0,.38-.69.48.48,0,0,0-.06-.21,1.24,1.24,0,0,0-.23-.24,2.75,2.75,0,0,0-.45-.28,6.53,6.53,0,0,0-.72-.32,9.14,9.14,0,0,1-.94-.42,2.94,2.94,0,0,1-.75-.52,2.31,2.31,0,0,1-.49-.68,2.24,2.24,0,0,1-.17-.89,2.43,2.43,0,0,1,.19-1,2.26,2.26,0,0,1,.55-.78,2.41,2.41,0,0,1,.85-.51,3,3,0,0,1,1.1-.19,2.83,2.83,0,0,1,.68.09,4.27,4.27,0,0,1,.72.21,4.33,4.33,0,0,1,.65.31,2.38,2.38,0,0,1,.51.35l-1,1.3a4.57,4.57,0,0,0-.47-.29,3,3,0,0,0-.47-.2,1.4,1.4,0,0,0-.54-.1,1.36,1.36,0,0,0-.78.2.64.64,0,0,0-.28.57.47.47,0,0,0,.1.3,1,1,0,0,0,.28.26,3.65,3.65,0,0,0,.4.21l.48.18a9.44,9.44,0,0,1,1.21.55,3.47,3.47,0,0,1,.79.6,2,2,0,0,1,.43.69,2.53,2.53,0,0,1,.12.8,2.38,2.38,0,0,1-.21,1,2.52,2.52,0,0,1-.6.81,2.7,2.7,0,0,1-.9.54A3.15,3.15,0,0,1,628.33,132Z" transform="translate(-37.32 -49.73)"/><path class="cls-10" d="M640.1,130.46a5.49,5.49,0,0,1-1.53,1.1,4,4,0,0,1-1.73.39,4.1,4.1,0,0,1-1.77-.37,4.14,4.14,0,0,1-2.2-2.33,4.3,4.3,0,0,1-.31-1.57,4.26,4.26,0,0,1,1.31-3.09,4.29,4.29,0,0,1,3-1.21,4.11,4.11,0,0,1,1.66.36,4.44,4.44,0,0,1,1.47,1l-1.17,1.18a3.16,3.16,0,0,0-.92-.65,2.57,2.57,0,0,0-1-.23,2.52,2.52,0,0,0-1,.21,2.77,2.77,0,0,0-.82.56,2.68,2.68,0,0,0-.77,1.86,2.44,2.44,0,0,0,.21,1,2.48,2.48,0,0,0,.56.83,2.6,2.6,0,0,0,.82.56,2.69,2.69,0,0,0,1,.2A2.33,2.33,0,0,0,638,130a3.75,3.75,0,0,0,1-.72Z" transform="translate(-37.32 -49.73)"/><path class="cls-10" d="M641.83,131.87v-8.4h1.66v8.4Z" transform="translate(-37.32 -49.73)"/><path class="cls-10" d="M645.89,123.38h.73l4.53,5v-4.95h1.66V132h-.74l-4.53-5v5h-1.65Z" transform="translate(-37.32 -49.73)"/><path class="cls-10" d="M658.83,127.11h3.29v3.58a5.38,5.38,0,0,1-1.42.94,4.34,4.34,0,0,1-3.39,0,4.14,4.14,0,0,1-1.35-1,4.19,4.19,0,0,1-.86-1.36,4.3,4.3,0,0,1-.3-1.58,4.1,4.1,0,0,1,.37-1.77,4.2,4.2,0,0,1,2.32-2.22,4.12,4.12,0,0,1,1.58-.31,4.19,4.19,0,0,1,1.66.35,4.73,4.73,0,0,1,1.46,1l-1.14,1.2a3.53,3.53,0,0,0-.95-.66,2.53,2.53,0,0,0-1-.23,2.64,2.64,0,0,0-1,.2,2.67,2.67,0,0,0-.83.57,2.87,2.87,0,0,0-.56.84,2.69,2.69,0,0,0-.2,1,2.6,2.6,0,0,0,.2,1,2.82,2.82,0,0,0,.56.83,2.57,2.57,0,0,0,1.84.76,2.55,2.55,0,0,0,.72-.1,2.87,2.87,0,0,0,.67-.28v-1.12h-1.63Z" transform="translate(-37.32 -49.73)"/><path class="cls-10" d="M669,125.13v1.7h2.72v1.68H669v1.69h3.73v1.67h-5.4v-8.4h5.4v1.66Z" transform="translate(-37.32 -49.73)"/><path class="cls-10" d="M679.79,131.87h-5.06v-8.4h1.67v6.73h3.39Z" transform="translate(-37.32 -49.73)"/><path class="cls-10" d="M681.57,131.87v-8.4h1.66v8.4Z" transform="translate(-37.32 -49.73)"/><path class="cls-10" d="M691.27,125.13H689v6.74H687.3v-6.74H685v-1.66h6.3Z" transform="translate(-37.32 -49.73)"/><path class="cls-10" d="M693,132.84l1-2.8h1.69l-1.45,2.8Z" transform="translate(-37.32 -49.73)"/><path class="cls-10" d="M703,132a3.51,3.51,0,0,1-1.07-.16,3.86,3.86,0,0,1-1-.44h0a3.73,3.73,0,0,1-.57-.44c-.17-.16-.29-.28-.35-.35l1.25-1.15a1.37,1.37,0,0,0,.27.25,2.81,2.81,0,0,0,.42.29,4,4,0,0,0,.51.24,1.51,1.51,0,0,0,.5.09,1.44,1.44,0,0,0,.41-.05,1.2,1.2,0,0,0,.37-.15.78.78,0,0,0,.38-.69.48.48,0,0,0-.06-.21,1.24,1.24,0,0,0-.23-.24,2.75,2.75,0,0,0-.45-.28,6.53,6.53,0,0,0-.72-.32,9.14,9.14,0,0,1-.94-.42,2.94,2.94,0,0,1-.75-.52,2.31,2.31,0,0,1-.49-.68,2.24,2.24,0,0,1-.17-.89,2.43,2.43,0,0,1,.19-1,2.26,2.26,0,0,1,.55-.78,2.41,2.41,0,0,1,.85-.51,3,3,0,0,1,1.1-.19,2.83,2.83,0,0,1,.68.09,4.27,4.27,0,0,1,.72.21,4.33,4.33,0,0,1,.65.31,2.38,2.38,0,0,1,.51.35l-1,1.3a4.57,4.57,0,0,0-.47-.29,3.34,3.34,0,0,0-.46-.2,1.47,1.47,0,0,0-.54-.1,1.38,1.38,0,0,0-.79.2.64.64,0,0,0-.28.57.47.47,0,0,0,.1.3,1,1,0,0,0,.28.26,3.65,3.65,0,0,0,.4.21l.48.18a9.44,9.44,0,0,1,1.21.55,3.47,3.47,0,0,1,.79.6,2,2,0,0,1,.43.69,2.53,2.53,0,0,1,.12.8,2.38,2.38,0,0,1-.21,1,2.52,2.52,0,0,1-.6.81,2.7,2.7,0,0,1-.9.54A3.15,3.15,0,0,1,703,132Z" transform="translate(-37.32 -49.73)"/><path class="cls-10" d="M709.5,125.13v1.7h2.72v1.68H709.5v1.69h3.73v1.67h-5.4v-8.4h5.4v1.66Z" transform="translate(-37.32 -49.73)"/><path class="cls-10" d="M715.27,131.87v-8.4h2.91a4.5,4.5,0,0,1,1.69.3,3.59,3.59,0,0,1,1.28.87A3.8,3.8,0,0,1,722,126a4.65,4.65,0,0,1,.29,1.71,4.48,4.48,0,0,1-.29,1.65,3.85,3.85,0,0,1-.81,1.32,3.64,3.64,0,0,1-1.28.89,4.14,4.14,0,0,1-1.69.33Zm1.65-1.67h1.26a2.49,2.49,0,0,0,1-.19,2.45,2.45,0,0,0,1.27-1.34,3,3,0,0,0,0-2,2.42,2.42,0,0,0-.51-.81,2.76,2.76,0,0,0-.76-.54,2.32,2.32,0,0,0-1-.19h-1.26Z" transform="translate(-37.32 -49.73)"/><path class="cls-10" d="M727.23,131.87v-8.4h2.92a4.49,4.49,0,0,1,1.68.3,3.59,3.59,0,0,1,1.28.87,3.83,3.83,0,0,1,.82,1.33,4.87,4.87,0,0,1,.29,1.71,4.69,4.69,0,0,1-.29,1.65,3.88,3.88,0,0,1-.82,1.32,3.64,3.64,0,0,1-1.28.89,4.13,4.13,0,0,1-1.68.33Zm1.66-1.67h1.26a2.48,2.48,0,0,0,1-.19,2.44,2.44,0,0,0,.77-.54,2.52,2.52,0,0,0,.5-.8,2.81,2.81,0,0,0,0-2,2.57,2.57,0,0,0-.5-.81,2.81,2.81,0,0,0-.77-.54,2.3,2.3,0,0,0-1-.19h-1.26Z" transform="translate(-37.32 -49.73)"/><path class="cls-10" d="M736.26,131.87v-8.4h1.65v8.4Z" transform="translate(-37.32 -49.73)"/><path class="cls-10" d="M743.72,123.38l3.78,8.49h-1.83l-.69-1.54h-3.2c-.11.24-.22.5-.35.77s-.23.53-.32.77h-1.83l3.73-8.49Zm.52,5.28-.87-1.94-.86,1.94Z" transform="translate(-37.32 -49.73)"/><path class="cls-10" d="M758.41,123.38v8.49h-1.66v-5.43l-3,3-3-3v5.43h-1.67v-8.49H750l3.76,3.73,3.77-3.73Z" transform="translate(-37.32 -49.73)"/><path class="cls-10" d="M519.57,137.78h.73l4.54,5v-4.95h1.66v8.48h-.75l-4.52-5v5h-1.66Z" transform="translate(-37.32 -49.73)"/><path class="cls-10" d="M532.75,146.35a4.15,4.15,0,0,1-1.55-.3,4.34,4.34,0,0,1-1.35-.85,4.08,4.08,0,0,1-1.31-3,4.22,4.22,0,0,1,.31-1.6,4.4,4.4,0,0,1,.89-1.35,4.54,4.54,0,0,1,1.33-.93,4.2,4.2,0,0,1,3.24,0,4.16,4.16,0,0,1,2.28,2.21,4,4,0,0,1,.36,1.7,4.22,4.22,0,0,1-.31,1.57,4.47,4.47,0,0,1-.87,1.35,4.24,4.24,0,0,1-1.34.93A4,4,0,0,1,532.75,146.35Zm0-6.78a2.6,2.6,0,0,0-1,.2,2.91,2.91,0,0,0-.82.56,2.88,2.88,0,0,0-.55.82,2.6,2.6,0,0,0,0,2,2.7,2.7,0,0,0,.55.81,2.61,2.61,0,0,0,.83.55,2.59,2.59,0,0,0,1,.2,2.38,2.38,0,0,0,1-.21,2.53,2.53,0,0,0,.81-.55,2.7,2.7,0,0,0,.55-.81,2.37,2.37,0,0,0,.2-1,2.45,2.45,0,0,0-.2-1,2.72,2.72,0,0,0-.56-.82,2.86,2.86,0,0,0-.81-.56A2.53,2.53,0,0,0,532.75,139.57Z" transform="translate(-37.32 -49.73)"/><path class="cls-10" d="M539.08,137.78h.74l4.53,5v-4.95H546v8.48h-.75l-4.52-5v5h-1.66Z" transform="translate(-37.32 -49.73)"/><path class="cls-10" d="M551.72,146.35a3.34,3.34,0,0,1-1.32-.25,2.89,2.89,0,0,1-1.69-1.71,3.52,3.52,0,0,1-.24-1.32v-5.2h1.65v5a2.06,2.06,0,0,0,.14.76,1.61,1.61,0,0,0,.35.58,1.82,1.82,0,0,0,.51.36,1.56,1.56,0,0,0,1.2,0,1.82,1.82,0,0,0,.51-.36,1.61,1.61,0,0,0,.35-.58,2.06,2.06,0,0,0,.14-.76v-5H555v5.2a3.52,3.52,0,0,1-.24,1.32,3.05,3.05,0,0,1-.67,1,3.16,3.16,0,0,1-1,.67A3.34,3.34,0,0,1,551.72,146.35Z" transform="translate(-37.32 -49.73)"/><path class="cls-10" d="M566.8,137.78v8.49h-1.65v-5.43l-3,3-3-3v5.43h-1.67v-8.49h.93l3.75,3.73,3.77-3.73Z" transform="translate(-37.32 -49.73)"/><path class="cls-10" d="M578.85,137.78v8.49H577.2v-5.43l-3,3-3-3v5.43h-1.67v-8.49h.93l3.75,3.73,3.77-3.73Z" transform="translate(-37.32 -49.73)"/><path class="cls-10" d="M588.36,137.87l-3.15,4.34v4.06h-1.67v-4.06l-.76-1.06c-.27-.36-.53-.74-.8-1.11l-.81-1.12c-.26-.37-.52-.72-.76-1h2.05l1.92,2.66,1.91-2.66Z" transform="translate(-37.32 -49.73)"/><path class="cls-10" d="M592.68,137.78h.73l4.53,5v-4.95h1.66v8.48h-.74l-4.53-5v5h-1.65Z" transform="translate(-37.32 -49.73)"/><path class="cls-10" d="M602.12,146.27v-8.4h1.66v8.4Z" transform="translate(-37.32 -49.73)"/><path class="cls-10" d="M612.09,140.17a2.47,2.47,0,0,1-.18.88,1.91,1.91,0,0,1-.7.84,1.7,1.7,0,0,1,.54.36,2,2,0,0,1,.37.46,2.28,2.28,0,0,1,.21.51,1.84,1.84,0,0,1,.07.51,3.15,3.15,0,0,1-.13.92,2.21,2.21,0,0,1-.47.81,2.26,2.26,0,0,1-.88.58,3.54,3.54,0,0,1-1.36.23h-3.4v-8.4h3.37a2.54,2.54,0,0,1,1,.19,2.71,2.71,0,0,1,.82.51,2.31,2.31,0,0,1,.54.74A1.87,1.87,0,0,1,612.09,140.17Zm-4.26,1h1.51a1.14,1.14,0,0,0,.72-.21.67.67,0,0,0,.27-.56.76.76,0,0,0-.27-.59,1,1,0,0,0-.72-.25h-1.51Zm1.53,3.46a1.51,1.51,0,0,0,1-.26.77.77,0,0,0,.3-.61,1,1,0,0,0-.06-.34.75.75,0,0,0-.2-.3,1.15,1.15,0,0,0-.4-.2,2.22,2.22,0,0,0-.62-.08h-1.53v1.79Z" transform="translate(-37.32 -49.73)"/><path class="cls-10" d="M621,137.87v8.4h-1.67v-3.36H616v3.36h-1.66v-8.4H616v3.36h3.33v-3.36Z" transform="translate(-37.32 -49.73)"/><path class="cls-10" d="M628.12,139.53v1.7h2.73v1.68h-2.73v1.69h3.74v1.67h-5.4v-8.4h5.4v1.66Z" transform="translate(-37.32 -49.73)"/><path class="cls-10" d="M637,146.35a3.34,3.34,0,0,1-1.32-.25,3.06,3.06,0,0,1-1-.67,3.21,3.21,0,0,1-.67-1,3.52,3.52,0,0,1-.23-1.32v-5.2h1.65v5a2.06,2.06,0,0,0,.13.76,1.78,1.78,0,0,0,.36.58,1.82,1.82,0,0,0,.51.36,1.53,1.53,0,0,0,.6.12,1.57,1.57,0,0,0,.6-.12,1.82,1.82,0,0,0,.51-.36,1.76,1.76,0,0,0,.35-.58,2.06,2.06,0,0,0,.13-.76v-5h1.67v5.2a3.52,3.52,0,0,1-.24,1.32,3.05,3.05,0,0,1-.67,1,3.16,3.16,0,0,1-1,.67A3.34,3.34,0,0,1,637,146.35Z" transform="translate(-37.32 -49.73)"/><path class="cls-10" d="M642.67,146.27v-8.4h1.65v8.4Z" transform="translate(-37.32 -49.73)"/><path class="cls-10" d="M648.87,146.35a3.51,3.51,0,0,1-1.07-.16,3.86,3.86,0,0,1-1-.44h0a4.3,4.3,0,0,1-.57-.44l-.35-.35,1.25-1.15a1.37,1.37,0,0,0,.27.25,2.81,2.81,0,0,0,.42.29,4,4,0,0,0,.51.24,1.51,1.51,0,0,0,.5.09,1.44,1.44,0,0,0,.41-.05,1.11,1.11,0,0,0,.37-.15.72.72,0,0,0,.28-.27.77.77,0,0,0,.11-.42.52.52,0,0,0-.07-.21,1.24,1.24,0,0,0-.23-.24,2.75,2.75,0,0,0-.45-.28,6.53,6.53,0,0,0-.72-.32,10.22,10.22,0,0,1-.94-.42,3.34,3.34,0,0,1-.75-.52,2.31,2.31,0,0,1-.49-.68,2.24,2.24,0,0,1-.17-.89,2.43,2.43,0,0,1,.19-1,2.26,2.26,0,0,1,.55-.78,2.41,2.41,0,0,1,.85-.51,3,3,0,0,1,1.79-.1,4.44,4.44,0,0,1,.71.21,4.33,4.33,0,0,1,.65.31,2.76,2.76,0,0,1,.52.35l-1,1.3c-.15-.11-.31-.2-.46-.29a4.15,4.15,0,0,0-.47-.2,1.47,1.47,0,0,0-.54-.1,1.38,1.38,0,0,0-.79.2.64.64,0,0,0-.28.57.47.47,0,0,0,.1.3,1,1,0,0,0,.28.26,3.65,3.65,0,0,0,.4.21l.48.18a9.44,9.44,0,0,1,1.21.55,3.47,3.47,0,0,1,.79.6,2,2,0,0,1,.43.69,2.53,2.53,0,0,1,.12.8,2.38,2.38,0,0,1-.21,1,2.49,2.49,0,0,1-.59.81,2.85,2.85,0,0,1-.91.54A3.15,3.15,0,0,1,648.87,146.35Z" transform="translate(-37.32 -49.73)"/><path class="cls-10" d="M663.08,137.78v8.49h-1.66v-5.43l-3,3-3-3v5.43h-1.67v-8.49h.92l3.76,3.73,3.77-3.73Z" transform="translate(-37.32 -49.73)"/><path class="cls-10" d="M669.42,146.35a4.31,4.31,0,0,1-2.9-1.15,4,4,0,0,1-1.32-3,4.23,4.23,0,0,1,.32-1.6,4.37,4.37,0,0,1,.88-1.35,4.67,4.67,0,0,1,1.33-.93,4.12,4.12,0,0,1,1.69-.34,4.06,4.06,0,0,1,1.56.31,4.19,4.19,0,0,1,1.34.87,4.56,4.56,0,0,1,.94,1.34,4,4,0,0,1,.35,1.7,4,4,0,0,1-.31,1.57,4.47,4.47,0,0,1-.87,1.35,4.15,4.15,0,0,1-3,1.28Zm0-6.78a2.56,2.56,0,0,0-1,.2,2.65,2.65,0,0,0-.82.56,2.69,2.69,0,0,0-.55.82,2.49,2.49,0,0,0,0,2,2.53,2.53,0,0,0,.55.81,2.57,2.57,0,0,0,.82.55,2.64,2.64,0,0,0,1,.2,2.3,2.3,0,0,0,1-.21,2.53,2.53,0,0,0,.81-.55,2.48,2.48,0,0,0,.76-1.8,2.62,2.62,0,0,0-.2-1,2.68,2.68,0,0,0-1.38-1.38A2.48,2.48,0,0,0,669.42,139.57Z" transform="translate(-37.32 -49.73)"/><path class="cls-10" d="M675.75,146.27v-8.4h2.92a4.49,4.49,0,0,1,1.68.3,3.59,3.59,0,0,1,1.28.87,4,4,0,0,1,.82,1.33,4.87,4.87,0,0,1,.28,1.71,4.69,4.69,0,0,1-.28,1.65,4,4,0,0,1-.82,1.32,3.64,3.64,0,0,1-1.28.89,4.13,4.13,0,0,1-1.68.33Zm1.66-1.67h1.26a2.48,2.48,0,0,0,1-.19,2.29,2.29,0,0,0,.76-.54,2.38,2.38,0,0,0,.51-.8,2.81,2.81,0,0,0,0-2,2.42,2.42,0,0,0-.51-.81,2.62,2.62,0,0,0-.76-.54,2.3,2.3,0,0,0-1-.19h-1.26Z" transform="translate(-37.32 -49.73)"/><path class="cls-10" d="M693.35,139.53h-2.3v6.74h-1.67v-6.74h-2.33v-1.66h6.3Z" transform="translate(-37.32 -49.73)"/><path class="cls-10" d="M695.18,146.27v-8.4h1.65v8.4Z" transform="translate(-37.32 -49.73)"/><path class="cls-10" d="M699.24,137.78H700l4.53,5v-4.95h1.66v8.48h-.74l-4.53-5v5h-1.65Z" transform="translate(-37.32 -49.73)"/><path class="cls-10" d="M715.69,144.86a5.64,5.64,0,0,1-1.53,1.1,4.22,4.22,0,0,1-3.5,0,4.14,4.14,0,0,1-1.35-1,4.35,4.35,0,0,1-.86-1.37,4.36,4.36,0,0,1,0-3.3,4.43,4.43,0,0,1,1-1.36,4.32,4.32,0,0,1,1.37-.89,4.23,4.23,0,0,1,1.6-.32,4.07,4.07,0,0,1,1.66.36,4.44,4.44,0,0,1,1.47,1l-1.16,1.18a3.07,3.07,0,0,0-.93-.65,2.57,2.57,0,0,0-1-.23,2.44,2.44,0,0,0-1,.21,2.82,2.82,0,0,0-.83.56,2.61,2.61,0,0,0-.76,1.86,2.6,2.6,0,0,0,.2,1,2.63,2.63,0,0,0,1.39,1.39,2.6,2.6,0,0,0,1,.2,2.33,2.33,0,0,0,1.11-.26,3.79,3.79,0,0,0,1-.72Z" transform="translate(-37.32 -49.73)"/><path class="cls-10" d="M717.42,146.27v-8.4h1.65v8.4Z" transform="translate(-37.32 -49.73)"/><path class="cls-10" d="M721.47,146.27v-8.4h2.92a4.49,4.49,0,0,1,1.68.3,3.59,3.59,0,0,1,1.28.87,3.83,3.83,0,0,1,.82,1.33,4.87,4.87,0,0,1,.29,1.71,4.69,4.69,0,0,1-.29,1.65,3.88,3.88,0,0,1-.82,1.32,3.64,3.64,0,0,1-1.28.89,4.13,4.13,0,0,1-1.68.33Zm1.66-1.67h1.26a2.48,2.48,0,0,0,1-.19,2.29,2.29,0,0,0,.76-.54,2.38,2.38,0,0,0,.51-.8,2.81,2.81,0,0,0,0-2,2.42,2.42,0,0,0-.51-.81,2.62,2.62,0,0,0-.76-.54,2.3,2.3,0,0,0-1-.19h-1.26Z" transform="translate(-37.32 -49.73)"/><path class="cls-10" d="M733.69,146.35a3.34,3.34,0,0,1-1.32-.25,3.16,3.16,0,0,1-1-.67,3.21,3.21,0,0,1-.67-1,3.52,3.52,0,0,1-.23-1.32v-5.2h1.65v5a2.06,2.06,0,0,0,.13.76,1.78,1.78,0,0,0,.36.58,1.82,1.82,0,0,0,.51.36,1.53,1.53,0,0,0,.6.12,1.57,1.57,0,0,0,.6-.12,1.82,1.82,0,0,0,.51-.36,1.76,1.76,0,0,0,.35-.58,2.06,2.06,0,0,0,.13-.76v-5H737v5.2a3.52,3.52,0,0,1-.24,1.32,3.05,3.05,0,0,1-.67,1,3.16,3.16,0,0,1-1,.67A3.34,3.34,0,0,1,733.69,146.35Z" transform="translate(-37.32 -49.73)"/><path class="cls-10" d="M739.39,137.78h.73l4.54,5v-4.95h1.65v8.48h-.74l-4.53-5v5h-1.65Z" transform="translate(-37.32 -49.73)"/><path class="cls-10" d="M754.53,139.53h-2.3v6.74h-1.67v-6.74h-2.33v-1.66h6.3Z" transform="translate(-37.32 -49.73)"/><path class="cls-10" d="M522.7,160.75a3.34,3.34,0,0,1-1.32-.25,3,3,0,0,1-1-.67,3.05,3.05,0,0,1-.67-1,3.52,3.52,0,0,1-.24-1.32v-5.2h1.66v5a2.06,2.06,0,0,0,.13.76,2,2,0,0,0,.35.58,1.82,1.82,0,0,0,.51.36,1.61,1.61,0,0,0,.6.12,1.53,1.53,0,0,0,.6-.12,1.57,1.57,0,0,0,.51-.36,1.78,1.78,0,0,0,.36-.58,2.06,2.06,0,0,0,.13-.76v-5H526v5.2a3.52,3.52,0,0,1-.24,1.32A2.92,2.92,0,0,1,524,160.5,3.34,3.34,0,0,1,522.7,160.75Z" transform="translate(-37.32 -49.73)"/><path class="cls-10" d="M534,153.93h-2.3v6.74h-1.67v-6.74h-2.33v-1.66H534Z" transform="translate(-37.32 -49.73)"/><path class="cls-10" d="M543.84,160.67h-5.06v-8.4h1.67V159h3.39Z" transform="translate(-37.32 -49.73)"/><path class="cls-10" d="M549.09,152.18l3.78,8.49H551l-.69-1.54h-3.2l-.34.77c-.13.28-.24.53-.33.77h-1.83l3.73-8.49Zm.52,5.28-.87-1.94-.86,1.94Z" transform="translate(-37.32 -49.73)"/><path class="cls-10" d="M557.59,160.75a4.15,4.15,0,0,1-1.55-.3,4.34,4.34,0,0,1-1.35-.85,4.08,4.08,0,0,1-1.31-3,4.22,4.22,0,0,1,.31-1.6,4.4,4.4,0,0,1,.89-1.35,4.54,4.54,0,0,1,1.33-.93,4.2,4.2,0,0,1,3.24,0,4.16,4.16,0,0,1,2.28,2.21,4,4,0,0,1,.36,1.7,4.22,4.22,0,0,1-.31,1.57,4.47,4.47,0,0,1-.87,1.35,4.24,4.24,0,0,1-1.34.93A4,4,0,0,1,557.59,160.75Zm0-6.78a2.6,2.6,0,0,0-1,.2,2.91,2.91,0,0,0-.82.56,2.88,2.88,0,0,0-.55.82,2.6,2.6,0,0,0,0,2,2.7,2.7,0,0,0,.55.81,2.61,2.61,0,0,0,.83.55,2.59,2.59,0,0,0,1,.2,2.38,2.38,0,0,0,1-.21,2.53,2.53,0,0,0,.81-.55,2.7,2.7,0,0,0,.55-.81,2.37,2.37,0,0,0,.2-1,2.45,2.45,0,0,0-.2-1,2.72,2.72,0,0,0-.56-.82,2.86,2.86,0,0,0-.81-.56A2.53,2.53,0,0,0,557.59,154Z" transform="translate(-37.32 -49.73)"/><path class="cls-10" d="M570.91,160.67h-2l-2.28-3.21h-1v3.21h-1.66v-8.4h3.4a2.45,2.45,0,0,1,1,.2,2.72,2.72,0,0,1,.82.56,2.77,2.77,0,0,1,.56.82,2.44,2.44,0,0,1,.21,1,2.49,2.49,0,0,1-.41,1.42,2.44,2.44,0,0,1-1.06.93Zm-3.9-4.86a1.31,1.31,0,0,0,.93-.29.87.87,0,0,0,.3-.66.85.85,0,0,0-.3-.66,1.36,1.36,0,0,0-.93-.27h-1.43v1.88Z" transform="translate(-37.32 -49.73)"/><path class="cls-10" d="M574.23,153.93v1.7H577v1.68h-2.73V159H578v1.67h-5.4v-8.4H578v1.66Z" transform="translate(-37.32 -49.73)"/><path class="cls-10" d="M581.65,153.93v1.7h2.72v1.68h-2.72V159h3.73v1.67H580v-8.4h5.4v1.66Z" transform="translate(-37.32 -49.73)"/><path class="cls-10" d="M593.06,153.93h-2.3v6.74h-1.67v-6.74h-2.33v-1.66h6.3Z" transform="translate(-37.32 -49.73)"/><path class="cls-10" d="M597.83,160.67v-8.4h2.91a4.54,4.54,0,0,1,1.69.3,3.68,3.68,0,0,1,1.28.87,3.8,3.8,0,0,1,.81,1.33,4.87,4.87,0,0,1,.29,1.71,4.69,4.69,0,0,1-.29,1.65,3.85,3.85,0,0,1-.81,1.32,3.73,3.73,0,0,1-1.28.89,4.18,4.18,0,0,1-1.69.33Zm1.65-1.67h1.26a2.48,2.48,0,0,0,1-.19,2.33,2.33,0,0,0,.77-.54,2.52,2.52,0,0,0,.5-.8,2.81,2.81,0,0,0,0-2,2.57,2.57,0,0,0-.5-.81,2.67,2.67,0,0,0-.77-.54,2.3,2.3,0,0,0-1-.19h-1.26Z" transform="translate(-37.32 -49.73)"/><path class="cls-10" d="M610.58,160.75a4.19,4.19,0,0,1-1.55-.3,4.34,4.34,0,0,1-1.35-.85,4.14,4.14,0,0,1-.95-1.32,4.25,4.25,0,0,1,0-3.33,4.2,4.2,0,0,1,.88-1.35,4.54,4.54,0,0,1,1.33-.93,4.23,4.23,0,0,1,3.25,0,4.42,4.42,0,0,1,1.34.87,4.56,4.56,0,0,1,.94,1.34,4.14,4.14,0,0,1,.35,1.7,4,4,0,0,1-.31,1.57,4.47,4.47,0,0,1-.87,1.35,4.19,4.19,0,0,1-1.33.93A4.12,4.12,0,0,1,610.58,160.75Zm0-6.78a2.6,2.6,0,0,0-1,.2,2.73,2.73,0,0,0-.81.56,2.52,2.52,0,0,0-.55.82,2.49,2.49,0,0,0,0,2,2.38,2.38,0,0,0,.55.81,2.46,2.46,0,0,0,.82.55,2.59,2.59,0,0,0,1,.2,2.38,2.38,0,0,0,1-.21,2.61,2.61,0,0,0,1.36-1.36,2.38,2.38,0,0,0,.21-1,2.46,2.46,0,0,0-.21-1,2.69,2.69,0,0,0-.55-.82,2.91,2.91,0,0,0-.82-.56A2.53,2.53,0,0,0,610.58,154Z" transform="translate(-37.32 -49.73)"/><path class="cls-10" d="M621.94,160.67h-5.05v-8.4h1.67V159h3.38Z" transform="translate(-37.32 -49.73)"/><path class="cls-10" d="M626.62,160.75a4.31,4.31,0,0,1-2.89-1.15,4,4,0,0,1-1.32-3,4.23,4.23,0,0,1,.32-1.6,4.37,4.37,0,0,1,.88-1.35,4.67,4.67,0,0,1,1.33-.93,4.23,4.23,0,0,1,3.25,0,4.19,4.19,0,0,1,1.34.87,4.56,4.56,0,0,1,.94,1.34,4,4,0,0,1,.35,1.7,4,4,0,0,1-.31,1.57,4.47,4.47,0,0,1-.87,1.35,4.15,4.15,0,0,1-3,1.28Zm0-6.78a2.55,2.55,0,0,0-1,.2,2.65,2.65,0,0,0-.82.56,2.69,2.69,0,0,0-.55.82,2.49,2.49,0,0,0,0,2,2.53,2.53,0,0,0,.55.81,2.57,2.57,0,0,0,.82.55,2.62,2.62,0,0,0,1,.2,2.31,2.31,0,0,0,1-.21,2.53,2.53,0,0,0,.81-.55,2.48,2.48,0,0,0,.76-1.8,2.62,2.62,0,0,0-.2-1,2.68,2.68,0,0,0-1.38-1.38A2.49,2.49,0,0,0,626.62,154Z" transform="translate(-37.32 -49.73)"/><path class="cls-10" d="M639.94,160.67h-2l-2.28-3.21h-1v3.21H633v-8.4h3.4a2.37,2.37,0,0,1,1,.2,2.6,2.6,0,0,1,.82.56,2.63,2.63,0,0,1,.57.82,2.44,2.44,0,0,1,.21,1,2.57,2.57,0,0,1-.41,1.42,2.47,2.47,0,0,1-1.07.93Zm-3.9-4.86a1.32,1.32,0,0,0,.94-.29.87.87,0,0,0,.3-.66.85.85,0,0,0-.3-.66,1.37,1.37,0,0,0-.94-.27h-1.42v1.88Z" transform="translate(-37.32 -49.73)"/><path class="cls-10" d="M643.27,153.93v1.7H646v1.68h-2.72V159H647v1.67h-5.4v-8.4H647v1.66Z" transform="translate(-37.32 -49.73)"/><path class="cls-10" d="M661.3,152.18v8.49h-1.65v-5.43l-3,3-3-3v5.43h-1.67v-8.49h.93l3.75,3.73,3.77-3.73Z" transform="translate(-37.32 -49.73)"/><path class="cls-10" d="M667.38,152.18l3.78,8.49h-1.84l-.68-1.54h-3.21c-.1.24-.22.5-.34.77s-.23.53-.33.77h-1.82l3.73-8.49Zm.51,5.28-.86-1.94-.87,1.94Z" transform="translate(-37.32 -49.73)"/><path class="cls-10" d="M675.64,155.91h3.29v3.58a5.38,5.38,0,0,1-1.42.94,4.34,4.34,0,0,1-3.39-.05,4.14,4.14,0,0,1-1.35-1,4.19,4.19,0,0,1-.86-1.36,4.3,4.3,0,0,1-.3-1.58,4.1,4.1,0,0,1,.37-1.77,4.2,4.2,0,0,1,2.32-2.22,4.12,4.12,0,0,1,1.58-.31,4.19,4.19,0,0,1,1.66.35,4.62,4.62,0,0,1,1.46,1l-1.14,1.2a3.53,3.53,0,0,0-1-.66,2.53,2.53,0,0,0-1-.23,2.64,2.64,0,0,0-1,.2,2.67,2.67,0,0,0-.83.57,2.87,2.87,0,0,0-.56.84,2.69,2.69,0,0,0-.2,1,2.6,2.6,0,0,0,.2,1,2.82,2.82,0,0,0,.56.83,2.57,2.57,0,0,0,1.84.76,2.55,2.55,0,0,0,.72-.1,3.14,3.14,0,0,0,.68-.28v-1.12h-1.64Z" transform="translate(-37.32 -49.73)"/><path class="cls-10" d="M681.27,152.18H682l4.54,5v-4.95h1.66v8.48h-.75l-4.52-5v4.95h-1.66Z" transform="translate(-37.32 -49.73)"/><path class="cls-10" d="M694.18,152.18l3.78,8.49h-1.83l-.69-1.54h-3.2c-.1.24-.22.5-.34.77s-.24.53-.33.77h-1.83l3.74-8.49Zm.52,5.28-.86-1.94-.87,1.94Z" transform="translate(-37.32 -49.73)"/><path class="cls-10" d="M705.78,152.18l3.78,8.49h-1.84l-.68-1.54h-3.21c-.1.24-.22.5-.34.77l-.33.77h-1.82l3.73-8.49Zm.51,5.28-.86-1.94-.87,1.94Z" transform="translate(-37.32 -49.73)"/><path class="cls-10" d="M716.11,160.67h-5.05v-8.4h1.66V159h3.39Z" transform="translate(-37.32 -49.73)"/><path class="cls-10" d="M717.9,160.67v-8.4h1.65v8.4Z" transform="translate(-37.32 -49.73)"/><text x="-37.32" y="-49.73"/><text class="cls-11" transform="translate(451.68 208.21)">Cool<tspan class="cls-12" x="30.02" y="0">v</tspan><tspan x="37.49" y="0">etica</tspan></text><text class="cls-13" transform="translate(481.07 224.31)"><tspan class="cls-14">L</tspan><tspan x="5.7" y="0">o</tspan><tspan class="cls-15" x="12.17" y="0">r</tspan><tspan x="15.66" y="0">em ipsum dolor sit ame</tspan><tspan class="cls-16" x="131.2" y="0">t</tspan><tspan x="136.45" y="0">, consectetuer </tspan><tspan x="0" y="14.4">adipiscing eli</tspan><tspan class="cls-16" x="62.58" y="14.4">t</tspan><tspan x="67.82" y="14.4">, sed diam nonummy nibh euismod </tspan><tspan x="0" y="28.8">tincidunt ut lao</tspan><tspan class="cls-15" x="77.34" y="28.8">r</tspan><tspan x="80.83" y="28.8">eet dolo</tspan><tspan class="cls-17" x="122.66" y="28.8">r</tspan><tspan x="126.15" y="28.8">e magna ali</tspan></text></svg>