<svg id="Layer_1" data-name="Layer 1" xmlns="http://www.w3.org/2000/svg" viewBox="0 0 522.32 512.81"><defs><style>.cls-1{fill:#fff;}</style></defs><path class="cls-1" d="M669.86,525.81,499.94,361.12a193,193,0,0,0,41.55-119.83c0-106.93-87-193.93-193.93-193.93s-193.93,87-193.93,193.93,87,193.94,193.93,193.94a193.06,193.06,0,0,0,124.53-45.39L642,554.53a20,20,0,0,0,28.28-.44h0A20,20,0,0,0,669.86,525.81ZM193.63,241.29c0-84.88,69.05-153.93,153.93-153.93s153.93,69.05,153.93,153.93S432.44,395.23,347.56,395.23,193.63,326.17,193.63,241.29Z" transform="translate(-153.63 -47.36)"/></svg>